<?xml version="1.0" standalone="no"?><!DOCTYPE svg PUBLIC "-//W3C//DTD SVG 1.1//EN" "http://www.w3.org/Graphics/SVG/1.1/DTD/svg11.dtd"><svg t="1543630406999" class="icon" style="" viewBox="0 0 1088 1024" version="1.1" xmlns="http://www.w3.org/2000/svg" p-id="986" xmlns:xlink="http://www.w3.org/1999/xlink" width="212.5" height="200"><defs><style type="text/css"></style></defs><path d="M0 378.234234h479.711712v498.162162c0 20.295495-16.605405 36.900901-36.900901 36.900901h-405.90991c-20.295495 0-36.900901-16.605405-36.900901-36.900901v-498.162162z m321.96036 196.497298l-8.302702-15.682883c-23.063063 8.302703-49.816216 12.915315-79.336937 13.837837v66.421622c-0.922523 32.288288-8.302703 58.118919-22.140541 76.569369l11.992793 12.915316c17.527928-22.140541 25.830631-52.583784 27.675676-89.484685v-5.535135h30.443243V729.715315h17.527928v-95.942342h26.753153v-16.605405h-74.724324v-29.520721c24.908108-1.845045 48.893694-5.535135 70.111711-12.915315z m-154.061261 152.216216h17.527928c11.992793 0 17.527928-6.457658 17.527928-18.450451v-49.816216c5.535135-2.767568 12.915315-5.535135 22.14054-9.225225v-17.527928c-7.38018 3.69009-14.76036 7.38018-22.14054 10.147748v-33.210811h21.218018V591.336937h-21.218018v-32.288288h-17.527928v32.288288h-24.908108v16.605405h24.908108v38.745946c-10.147748 2.767568-19.372973 5.535135-27.675676 7.38018l4.612613 17.527928c5.535135-1.845045 12.915315-3.69009 23.985586-7.38018v38.745946c0 4.612613-1.845045 7.38018-6.457658 7.38018-4.612613 0-10.147748 0-15.682883-0.922522l3.69009 17.527928z" p-id="987"></path><path d="M161.441441 175.279279H0v184.504505h479.711712v-184.504505h-161.441442c-11.07027 32.288288-42.436036 55.351351-78.414414 55.351352s-67.344144-23.063063-78.414415-55.351352z" p-id="988"></path><path d="M565.44173 341.39791l427.423135 217.779892-226.156397 443.871712a37.011604 37.011604 0 0 1-49.631711 16.125693l-361.674955-184.283099a37.011604 37.011604 0 0 1-16.125694-49.631712l226.165622-443.862486z m196.469621 315.456576l-76.449441-38.9489-67.842306 133.1569 14.788036 7.546235 5.442883-10.692036 46.864144 23.874883-5.442883 10.68281 14.788036 7.546235 67.851531-133.166127z m-117.750774 21.799208l7.537009-14.797262a262.596036 262.596036 0 0 1-22.269694-0.987099l14.658883-28.773477 18.081441 9.216 7.537009-14.797261-18.081441-9.216 14.234522-27.952433-14.788036-7.527784-14.243747 27.943208-22.195892-11.310127-7.537009 14.797262 22.195892 11.310126-18.00764 35.341838c-9.474306-1.725117-18.957838-3.441009-28.017009-5.987171l-4.243604 16.467027c7.832216 0.885622 16.061117 3.016649 23.893334 3.90227l-18.422775 36.162883c-2.094126 4.11445-5.811892 5.322955-9.926343 3.228829-4.935495-2.518486-9.870991-5.027748-14.382126-8.36728l-4.243603 16.476252 16.439351 8.376505c10.682811 5.442883 19.372973 2.619964 24.815856-8.062847l23.450522-46.033874c11.134847 0.498162 18.146018 0.959423 23.5151 0.590415z" p-id="989"></path><path d="M645.396757 733.128649l46.854919 23.865657 47.325405-92.879567-46.864144-23.874883z" p-id="990"></path><path d="M801.422991 233.859459l-143.839712-73.294414-83.765045 164.393514 427.423135 217.779891 83.765045-164.393513-143.848937-73.294414c-24.520649 23.74573-62.934486 30.055784-94.992144 13.717909s-49.539459-51.116973-44.742342-84.918198z" p-id="991"></path><path d="M656.836036 0.922523s-1.845045 39.668468 16.605405 59.041441c18.45045 18.45045 59.041441 16.605405 59.041442 16.605405s-39.668468-0.922523-58.118919 17.527928-17.527928 58.118919-17.527928 58.118919 0.922523-40.590991-17.527928-59.963964c-18.45045-18.45045-57.196396-15.682883-57.196396-15.682883s35.978378 0 55.351351-17.527928c18.45045-19.372973 19.372973-58.118919 19.372973-58.118918z m243.545946 147.603603s-0.922523 26.753153 11.07027 39.668469c12.915315 12.915315 39.668468 11.07027 39.668469 11.07027s-26.753153-0.922523-39.668469 11.992793-11.992793 39.668468-11.992793 39.668468 0.922523-27.675676-11.992792-40.590991c-12.915315-12.915315-39.668468-10.147748-39.668469-10.147748s24.908108 0 37.823424-12.915315c13.837838-11.992793 14.76036-38.745946 14.76036-38.745946z" p-id="992"></path></svg>